<svg xmlns="http://www.w3.org/2000/svg" viewBox="0 0 1000 700" width="1000" height="700">
  <rect width="1000" height="700" fill="#0A0908"/>
  <g stroke="rgba(255,255,255,0.045)" stroke-width="1" fill="none">
    <rect x="30" y="30" width="940" height="640"/>
    <rect x="40" y="40" width="70" height="60"/>
    <rect x="200" y="150" width="640" height="60"/>
    <path d="M240 150 V210 M280 150 V210 M320 150 V210 M360 150 V210 M400 150 V210 M440 150 V210 M480 150 V210 M520 150 V210 M560 150 V210 M600 150 V210 M640 150 V210 M680 150 V210 M720 150 V210 M760 150 V210 M800 150 V210" stroke-dasharray="1 3"/>
    <rect x="260" y="400" width="520" height="60"/>
    <path d="M300 400 V460 M340 400 V460 M380 400 V460 M420 400 V460 M460 400 V460 M500 400 V460 M540 400 V460 M580 400 V460 M620 400 V460 M660 400 V460 M700 400 V460 M740 400 V460" stroke-dasharray="1 3"/>
    <rect x="60" y="560" width="140" height="100"/>
    <rect x="60" y="560" width="140" height="24"/>
    <path d="M260 670 V650 H340 V670 M380 670 V650 H460 V670 M500 670 V650 H580 V670 M620 670 V650 H700 V670 M740 670 V650 H820 V670"/>
    <path d="M970 520 H950 V600 H970" stroke-dasharray="4 8"/>
    <path d="M200 300 H840 M200 550 H840" stroke-dasharray="2 10"/>
  </g>
  <g stroke="rgba(255,255,255,0.08)" stroke-dasharray="2 4" stroke-width="1">
    <line x1="120" y1="620" x2="250" y2="180"/><line x1="120" y1="620" x2="330" y2="430"/><line x1="250" y1="180" x2="500" y2="180"/>
    <line x1="500" y1="180" x2="780" y2="180"/><line x1="500" y1="180" x2="640" y2="430"/><line x1="330" y1="430" x2="640" y2="430"/>
  </g>
</svg>
